<svg xmlns="http://www.w3.org/2000/svg" xmlns:xlink="http://www.w3.org/1999/xlink" width="1366" zoomAndPan="magnify" viewBox="0 0 1024.5 576" height="768" preserveAspectRatio="xMidYMid meet" version="1.0"><defs><clipPath id="ef957d8db5"><path d="M 0 0.140625 L 1024 0.140625 L 1024 575.859375 L 0 575.859375 Z M 0 0.140625 " clip-rule="nonzero"/></clipPath><clipPath id="8367ecdc06"><path d="M 0 262 L 245 262 L 245 575.859375 L 0 575.859375 Z M 0 262 " clip-rule="nonzero"/></clipPath><clipPath id="789795b9de"><path d="M 669 0.140625 L 1024 0.140625 L 1024 434 L 669 434 Z M 669 0.140625 " clip-rule="nonzero"/></clipPath><clipPath id="86e956c4b7"><path d="M 904.296875 -435.058594 L 1420.808594 139.875 L 1028.78125 492.066406 L 512.269531 -82.871094 Z M 904.296875 -435.058594 " clip-rule="nonzero"/></clipPath><clipPath id="21232adb1a"><path d="M 904.296875 -435.058594 L 1420.808594 139.875 L 1028.78125 492.066406 L 512.269531 -82.871094 Z M 904.296875 -435.058594 " clip-rule="nonzero"/></clipPath></defs><g clip-path="url(#ef957d8db5)"><path fill="#ffffff" d="M 0 0.140625 L 1024 0.140625 L 1024 575.859375 L 0 575.859375 Z M 0 0.140625 " fill-opacity="1" fill-rule="nonzero"/><path fill="#f2efe6" d="M 0 0.140625 L 1024 0.140625 L 1024 575.859375 L 0 575.859375 Z M 0 0.140625 " fill-opacity="1" fill-rule="nonzero"/></g><g clip-path="url(#8367ecdc06)"><path fill="#43592b" d="M -57.65625 268.527344 C -22.898438 282.578125 -0.679688 317.335938 11.589844 352.789062 C 23.859375 388.207031 28.464844 425.949219 40.734375 461.363281 C 53.007812 496.78125 75.183594 531.539062 109.945312 545.628906 C 137.773438 556.894531 171.566406 554.183594 194.945312 572.996094 C 209.113281 584.375 216.851562 601.832031 222.851562 618.980469 C 232.992188 647.816406 239.769531 677.8125 243.019531 708.199219 C 245.1875 728.441406 245.339844 750.46875 233.769531 767.226562 C 219.5625 787.820312 192.507812 794.089844 167.964844 798.8125 C 147.839844 802.683594 126.589844 806.4375 107.3125 799.472656 C 88.847656 792.773438 75.144531 777.175781 63.652344 761.265625 C 30.980469 715.980469 6.597656 660.511719 -42.5625 634.074219 C -81.925781 612.902344 -131.589844 614.023438 -167.46875 587.355469 C -208.808594 556.621094 -218.796875 497.632812 -209.738281 446.886719 C -201.144531 398.582031 -182.0625 345.863281 -163.328125 300.691406 C -148.195312 264.035156 -91.214844 254.9375 -57.65625 268.527344 Z M -57.65625 268.527344 " fill-opacity="1" fill-rule="nonzero"/></g><path fill="#b5bc8c" d="M 32.414062 264.382812 C 47.933594 284.203125 53.585938 309.941406 56.0625 334.984375 C 58.542969 360.027344 58.347656 385.5 64.113281 409.960938 C 78.550781 471.078125 133.515625 520.742188 195.914062 527.902344 C 209.730469 529.488281 224.789062 528.871094 236.011719 520.625 C 247.46875 512.265625 252.695312 497.285156 252.425781 483.078125 C 252.039062 465.042969 243.832031 447.855469 232.453125 433.882812 C 221.070312 419.871094 206.671875 408.722656 192.121094 398.078125 C 176.519531 386.660156 160.148438 375.28125 149.851562 358.90625 C 132.664062 331.503906 135.957031 296.046875 124.304688 265.894531 C 113.039062 236.667969 87.765625 214.027344 58.734375 202.375 C 43.910156 196.414062 -51.734375 177.875 -50.148438 207.058594 C -49.296875 222.8125 -24.796875 229.277344 -13.53125 233.1875 C 4.195312 239.378906 20.722656 249.480469 32.414062 264.382812 Z M 32.414062 264.382812 " fill-opacity="1" fill-rule="nonzero"/><g clip-path="url(#789795b9de)"><g clip-path="url(#86e956c4b7)"><g clip-path="url(#21232adb1a)"><path fill="#43592b" d="M 1161.414062 203.109375 C 1158.101562 206.601562 1154.59375 210.527344 1151.265625 214.289062 C 1146.300781 221.554688 1142.402344 229.355469 1139.582031 237.691406 C 1137.5 244.128906 1136.148438 250.71875 1135.53125 257.457031 C 1135.027344 265.65625 1133.859375 265.863281 1133.164062 285.84375 C 1131.453125 338.089844 1132.28125 340.445312 1126 368.214844 C 1125.1875 371.339844 1124.171875 374.402344 1122.960938 377.398438 C 1113.800781 403.109375 1095.03125 432.488281 1068.160156 433.597656 C 1015.539062 435.707031 985.941406 344.234375 970.171875 302.980469 C 962.839844 283.761719 953.691406 254.113281 932.820312 231.960938 C 911.40625 209.132812 883.410156 197.574219 853.402344 188.660156 C 836.40625 183.289062 819.148438 178.96875 801.625 175.691406 C 782.109375 170.128906 759.109375 164.273438 735.738281 148.886719 C 701.011719 125.890625 677.785156 87.464844 675.101562 65.230469 C 673.410156 56.039062 672.828125 46.773438 673.359375 37.441406 C 673.757812 29.089844 674.878906 20.839844 676.71875 12.683594 C 678.558594 4.53125 681.09375 -3.402344 684.320312 -11.113281 C 685.238281 -13.679688 687.253906 -20.199219 687.929688 -21.457031 C 689.449219 -24.914062 690.523438 -28.503906 691.160156 -32.226562 C 691.972656 -36.632812 699.683594 -64.53125 693.089844 -83.507812 C 688.871094 -94.617188 683.910156 -105.386719 678.199219 -115.808594 C 675.945312 -120.6875 674.316406 -125.804688 672.269531 -130.738281 C 664.386719 -150.429688 671.511719 -217.542969 692.605469 -240.167969 C 708.828125 -257.515625 722.851562 -271.921875 744.851562 -281.042969 C 790.210938 -299.855469 790.660156 -298.777344 807.519531 -303.277344 C 872.753906 -320.71875 929.246094 -293.601562 956.167969 -240.367188 C 962.375 -228.074219 974.582031 -202.847656 981.273438 -187.503906 C 983.097656 -183.203125 985.089844 -178.980469 987.257812 -174.84375 C 989.421875 -170.703125 991.753906 -166.660156 994.246094 -162.710938 C 996.742188 -158.761719 999.390625 -154.917969 1002.199219 -151.183594 C 1005.003906 -147.449219 1007.957031 -143.832031 1011.054688 -140.339844 C 1014.152344 -136.84375 1017.390625 -133.480469 1020.761719 -130.246094 C 1024.132812 -127.011719 1027.628906 -123.921875 1031.253906 -120.972656 C 1034.875 -118.023438 1038.613281 -115.226562 1042.460938 -112.578125 C 1046.3125 -109.933594 1050.261719 -107.449219 1054.3125 -105.121094 C 1069.292969 -96.707031 1065.648438 -97.820312 1096.671875 -85.691406 C 1118.78125 -77.167969 1175.730469 -71.945312 1220.367188 -47.464844 C 1281.742188 -13.761719 1305.527344 68.871094 1244.902344 138.621094 C 1226.285156 160.054688 1183.476562 180.195312 1161.414062 203.109375 Z M 1161.414062 203.109375 " fill-opacity="1" fill-rule="nonzero"/></g></g></g></svg>